<svg width="40" height="41" viewBox="0 0 40 41" fill="none" xmlns="http://www.w3.org/2000/svg">
<g id="ion:body-outline">
<path id="Vector" d="M20 8C21.7259 8 23.125 6.60089 23.125 4.875C23.125 3.14911 21.7259 1.75 20 1.75C18.2741 1.75 16.875 3.14911 16.875 4.875C16.875 6.60089 18.2741 8 20 8Z" stroke="black" stroke-miterlimit="10"/>
<path id="Vector_2" d="M15.5703 23.5953L13.1953 37.0484C13.1526 37.2911 13.1582 37.5398 13.2116 37.7803C13.2651 38.0208 13.3654 38.2484 13.5069 38.4501C13.6484 38.6518 13.8283 38.8236 14.0362 38.9558C14.2441 39.088 14.4761 39.1778 14.7187 39.2203C14.9605 39.2633 15.2084 39.2579 15.4481 39.2045C15.6877 39.151 15.9144 39.0505 16.1149 38.9088C16.3155 38.7671 16.4859 38.587 16.6164 38.379C16.7469 38.171 16.8348 37.9391 16.875 37.6969L18.5156 28.3297V28.3453C18.5156 28.3453 18.9219 25.8063 19.8828 25.8063H20.125C21.1016 25.8063 21.4922 28.3453 21.4922 28.3453V28.3375L23.1328 37.7047C23.2198 38.1926 23.4971 38.626 23.9037 38.9095C24.3103 39.1931 24.8128 39.3034 25.3008 39.2164C25.7887 39.1294 26.2221 38.8521 26.5056 38.4455C26.7891 38.0389 26.8995 37.5364 26.8125 37.0484L24.4375 23.5953L24.0547 21.275C23.8281 19.8609 23.7266 17.5563 24.0937 16.6109C24.4062 15.7984 25.1977 15.5016 25.9063 15.5016H33.125C33.6223 15.5016 34.0992 15.304 34.4508 14.9524C34.8025 14.6008 35 14.1238 35 13.6266C35 13.1293 34.8025 12.6524 34.4508 12.3007C34.0992 11.9491 33.6223 11.7516 33.125 11.7516H6.875C6.37772 11.7516 5.90081 11.9491 5.54917 12.3007C5.19754 12.6524 5 13.1293 5 13.6266C5 14.1238 5.19754 14.6008 5.54917 14.9524C5.90081 15.304 6.37772 15.5016 6.875 15.5016H14.1016C14.8227 15.5016 15.6016 15.7984 15.9141 16.6109C16.2812 17.5563 16.1797 19.8609 15.9531 21.275L15.5703 23.5953Z" stroke="black" stroke-miterlimit="10"/>
</g>
</svg>
