<svg width="40" height="41" viewBox="0 0 40 41" fill="none" xmlns="http://www.w3.org/2000/svg">
<g id="hugeicons:bulb">
<g id="Group">
<path id="Vector" d="M8.57165 23.8333C7.32108 21.7854 6.66174 19.4312 6.66665 17.0317C6.66665 9.74166 12.6367 3.83333 20 3.83333C27.3633 3.83333 33.3333 9.74166 33.3333 17.0317C33.3382 19.4312 32.6789 21.7854 31.4283 23.8333" stroke="black" stroke-width="1.5" stroke-linecap="round" stroke-linejoin="round"/>
<path id="Vector_2" d="M23.3333 17.1667C22.3116 18.2383 21.185 18.8333 20 18.8333M20 18.8333C18.815 18.8333 17.6883 18.2383 16.6666 17.1667M20 18.8333V26.3333M25 32.1667L24.7833 33.245C24.55 34.4233 24.4316 35.0117 24.1666 35.4783C23.7583 36.1976 23.0971 36.7393 22.3116 36.9983C21.8033 37.1667 21.2 37.1667 20 37.1667C18.8 37.1667 18.1966 37.1667 17.6883 37C16.9025 36.7406 16.2413 36.1982 15.8333 35.4783C15.5683 35.0117 15.45 34.4233 15.2166 33.245L15 32.1667M12.305 28.9967C12.1516 28.5367 12.075 28.305 12.0833 28.1183C12.0927 27.9253 12.1579 27.7392 12.2709 27.5824C12.3839 27.4256 12.5399 27.305 12.72 27.235C12.8933 27.1667 13.1366 27.1667 13.62 27.1667H26.38C26.865 27.1667 27.1066 27.1667 27.28 27.2333C27.4604 27.3034 27.6165 27.4243 27.7295 27.5814C27.8425 27.7385 27.9075 27.925 27.9166 28.1183C27.925 28.305 27.8483 28.535 27.695 28.9967C27.4117 29.8483 27.27 30.275 27.0517 30.62C26.595 31.341 25.8791 31.8594 25.0516 32.0683C24.655 32.1667 24.2083 32.1667 23.3133 32.1667H16.6866C15.7916 32.1667 15.3433 32.1667 14.9483 32.0667C14.1211 31.8581 13.4053 31.3404 12.9483 30.62C12.73 30.275 12.5883 29.8483 12.305 28.9967Z" stroke="black" stroke-width="1.5" stroke-linecap="round" stroke-linejoin="round"/>
</g>
</g>
</svg>
