<svg width="1440" height="1751" viewBox="0 0 1440 1751" fill="none" xmlns="http://www.w3.org/2000/svg">
<rect width="1440" height="895" transform="translate(0 856)" fill="#B9D399"/>
<path d="M0 1610.78L80 1618.52C160 1626.84 320 1641.44 480 1610.78C640 1580.11 800 1501.26 960 1470.6C1120 1439.93 1280 1454.54 1360 1462.86L1440 1470.6V1750.96H1360C1280 1750.96 1120 1750.96 960 1750.96C800 1750.96 640 1750.96 480 1750.96C320 1750.96 160 1750.96 80 1750.96H0V1610.78Z" fill="#F7ECD9"/>
<path d="M0 256.459L80 268.397C160 281.236 320 303.761 480 256.459C640 209.157 800 87.5222 960 40.2199C1120 -7.08237 1280 15.4425 1360 28.2817L1440 40.2199V472.698H1360C1280 472.698 1120 472.698 960 472.698C800 472.698 640 472.698 480 472.698C320 472.698 160 472.698 80 472.698H0V256.459Z" fill="#B9D399"/>
<rect y="449" width="1440" height="430" fill="#B9D399"/>
</svg>
