<svg width="40" height="41" viewBox="0 0 40 41" fill="none" xmlns="http://www.w3.org/2000/svg">
<g id="gis:map-search" clip-path="url(#clip0_130_408)">
<path id="Vector" fill-rule="evenodd" clip-rule="evenodd" d="M13.676 2.5C13.5273 2.49852 13.3801 2.53022 13.2452 2.5928L0.5788 8.4772C0.405877 8.55751 0.259516 8.68558 0.156967 8.84631C0.0544177 9.00704 -4.42452e-05 9.19374 2.69718e-08 9.3844V37.5C-3.89947e-05 37.668 0.0422638 37.8334 0.123002 37.9807C0.203739 38.1281 0.320308 38.2527 0.461943 38.3431C0.603578 38.4336 0.765711 38.4868 0.933368 38.498C1.10103 38.5092 1.2688 38.478 1.4212 38.4072L13.6664 32.7188L25.9116 38.4068C26.0437 38.4682 26.1876 38.5 26.3332 38.5C26.4788 38.5 26.6227 38.4682 26.7548 38.4068L32.9308 35.5384L35.5556 40.0844C35.6953 40.3262 35.974 40.4746 36.3303 40.4968C36.6866 40.5191 37.0914 40.4135 37.4556 40.2032C37.8198 39.9929 38.1136 39.6952 38.2724 39.3755C38.4312 39.0558 38.442 38.7403 38.3024 38.4984L35.8184 34.196L39.4212 32.5228C39.5941 32.4425 39.7405 32.3144 39.843 32.1537C39.9456 31.993 40 31.8063 40 31.6156V3.5C40 3.33197 39.9577 3.16664 39.877 3.01928C39.7963 2.87192 39.6797 2.74727 39.5381 2.65686C39.3964 2.56645 39.2343 2.51319 39.0666 2.50199C38.899 2.4908 38.7312 2.52203 38.5788 2.5928L26.3336 8.2812L14.0884 2.5932C13.959 2.53304 13.8187 2.50127 13.676 2.5ZM14.258 4.8772L25.7284 10.2064L25.726 10.5632C24.0997 10.6133 22.5113 11.0659 21.1028 11.8804C16.3768 14.6092 14.7492 20.6844 17.4776 25.41C19.2276 28.4412 22.3512 30.1876 25.6136 30.3312L25.5808 36.0484L14.1108 30.72L14.258 4.8772ZM13.058 4.8852L12.91 30.8652L2 35.9324V10.0228L13.058 4.8852ZM38 5.0672V30.978L34.8148 32.458L33.4172 30.0376C33.341 29.9054 33.2224 29.7997 33.0697 29.7279C32.917 29.656 32.7338 29.6198 32.5328 29.6216L31.8592 28.4564C35.9088 25.5208 37.1876 19.9292 34.6336 15.5056C33.2696 13.1424 31.068 11.5544 28.6172 10.8976C28.0632 10.7501 27.4975 10.6506 26.9264 10.6L26.9288 10.21L38 5.0672ZM25.852 12.7508C26.5936 12.7308 27.3343 12.8184 28.0508 13.0108C29.0288 13.2724 29.9455 13.7248 30.748 14.3419C31.5506 14.959 32.2232 15.7288 32.7272 16.6068C33.2352 17.4823 33.5654 18.4495 33.6986 19.4529C33.8319 20.4563 33.7656 21.4761 33.5037 22.4539C33.2417 23.4316 32.7892 24.348 32.1722 25.1504C31.5551 25.9528 30.7857 26.6254 29.908 27.1296C29.0324 27.6376 28.0651 27.9677 27.0616 28.1009C26.0581 28.2341 25.0381 28.1678 24.0603 27.9058C23.0825 27.6439 22.166 27.1914 21.3636 26.5743C20.5611 25.9572 19.8883 25.1877 19.384 24.31C18.8761 23.4344 18.5462 22.4671 18.4131 21.4637C18.28 20.4603 18.3463 19.4404 18.6083 18.4627C18.8703 17.485 19.3228 16.5686 19.9399 15.7662C20.5569 14.9638 21.3263 14.2911 22.204 13.7868C23.3145 13.1426 24.5686 12.7864 25.852 12.7508ZM30.08 29.4836L30.7532 30.65C30.6511 30.8231 30.5908 30.9998 30.5765 31.1679C30.5622 31.336 30.5942 31.4915 30.6704 31.6236L31.9264 33.7992L26.7804 36.19L26.814 30.31C27.9421 30.2245 29.0469 29.9446 30.08 29.4836Z" fill="black"/>
</g>
<defs>
<clipPath id="clip0_130_408">
<rect width="40" height="40" fill="white" transform="translate(0 0.5)"/>
</clipPath>
</defs>
</svg>
