<svg width="40" height="41" viewBox="0 0 40 41" fill="none" xmlns="http://www.w3.org/2000/svg">
<g id="iconoir:yoga">
<g id="Group">
<path id="Vector" d="M24.285 25.5067L25.715 28.5817C25.715 28.5817 32.1433 29.9467 32.1433 33.1933C32.1433 35.5 29.2833 35.5 29.2833 35.5H21.6667L17.9167 33.4167" stroke="black" stroke-width="1.5" stroke-linecap="round" stroke-linejoin="round"/>
<path id="Vector_2" d="M15.715 25.5067L14.2867 28.5817C14.2867 28.5817 7.85666 29.9467 7.85666 33.1933C7.85666 35.5 10.7167 35.5 10.7167 35.5H14.1667L17.9167 33.4167L22.5 30.5" stroke="black" stroke-width="1.5" stroke-linecap="round" stroke-linejoin="round"/>
<path id="Vector_3" d="M5 27.0433C5 27.0433 8.57167 26.275 10.715 25.5067C12.8567 14.7433 19.2833 15.5117 20 15.5117C20.7167 15.5117 27.1433 14.7433 29.285 25.5067C31.4283 26.2733 35 27.0433 35 27.0433M20 12.1667C20.8841 12.1667 21.7319 11.8155 22.357 11.1904C22.9821 10.5652 23.3333 9.71739 23.3333 8.83333C23.3333 7.94928 22.9821 7.10143 22.357 6.47631C21.7319 5.85119 20.8841 5.5 20 5.5C19.1159 5.5 18.2681 5.85119 17.643 6.47631C17.0179 7.10143 16.6667 7.94928 16.6667 8.83333C16.6667 9.71739 17.0179 10.5652 17.643 11.1904C18.2681 11.8155 19.1159 12.1667 20 12.1667Z" stroke="black" stroke-width="1.5" stroke-linecap="round" stroke-linejoin="round"/>
</g>
</g>
</svg>
