<svg width="1440" height="1165" viewBox="0 0 1440 1165" fill="none" xmlns="http://www.w3.org/2000/svg">
<path d="M0 169.954L80 178.238C160 187.147 320 202.777 480 169.954C640 137.132 800 52.7307 960 19.9081C1120 -12.9144 1280 2.71534 1360 11.6243L1440 19.9081V320H1360C1280 320 1120 320 960 320C800 320 640 320 480 320C320 320 160 320 80 320H0V169.954Z" fill="#B9D399"/>
<rect width="1440" height="583" transform="translate(0 262)" fill="#B9D399"/>
<path d="M1440 995.046L1360 986.762C1280 977.853 1120 962.223 960 995.046C800 1027.87 640 1112.27 480 1145.09C320 1177.91 160 1162.28 80 1153.38L0 1145.09V845H80C160 845 320 845 480 845C640 845 800 845 960 845C1120 845 1280 845 1360 845H1440V995.046Z" fill="#B9D399"/>
</svg>
